<svg width="103" height="34" viewBox="0 0 103 34" fill="none" xmlns="http://www.w3.org/2000/svg">
<path d="M12.7618 8.92H0.44975V11.176H5.36975V25H7.81775V11.176H12.7618V8.92ZM15.7316 25V18.088C15.7316 16.36 16.6916 15.28 18.2756 15.28C18.9236 15.28 19.5956 15.448 20.1716 15.784V13.432C19.5716 13.144 18.8036 13 18.0596 13C14.9876 13 13.3556 15.136 13.3556 17.992V25H15.7316ZM26.3503 25.288C28.2703 25.288 29.8303 24.376 30.7183 22.936V25H32.9743V19.096C32.9743 15.592 30.2623 12.952 26.7103 12.952C23.1343 12.952 20.4462 15.736 20.4462 19.096C20.4462 22.504 22.9423 25.288 26.3503 25.288ZM26.7103 23.032C24.5263 23.032 22.8223 21.256 22.8223 19.12C22.8223 16.96 24.5263 15.184 26.7103 15.184C28.9183 15.184 30.5983 16.96 30.5983 19.12C30.5983 21.256 28.9183 23.032 26.7103 23.032ZM37.7514 23.464C38.2074 24.688 39.1194 25.312 40.2234 25.312C41.3754 25.312 42.2154 24.688 42.6714 23.464L46.4874 13.24H43.9674L40.5114 22.816C40.4874 22.936 40.3914 23.056 40.2234 23.056C40.0794 23.056 39.9834 22.936 39.9594 22.816L36.5034 13.24H33.9594L37.7514 23.464ZM52.7071 25.288C54.6271 25.288 56.1871 24.376 57.0751 22.936V25H59.3311V19.096C59.3311 15.592 56.6191 12.952 53.0671 12.952C49.4911 12.952 46.8031 15.736 46.8031 19.096C46.8031 22.504 49.2991 25.288 52.7071 25.288ZM53.0671 23.032C50.8831 23.032 49.1791 21.256 49.1791 19.12C49.1791 16.96 50.8831 15.184 53.0671 15.184C55.2751 15.184 56.9551 16.96 56.9551 19.12C56.9551 21.256 55.2751 23.032 53.0671 23.032Z" fill="#00E569"/>
<path d="M67.8466 15.232C70.1986 15.232 71.3986 17.128 71.3986 19.336V25H73.7746V19.048C73.7746 15.64 71.6866 12.952 67.8466 12.952C64.0546 12.952 62.0146 15.64 62.0146 19.072V25H64.3906V19.312C64.3906 17.128 65.5426 15.232 67.8466 15.232ZM81.9547 25.264C84.2587 25.264 86.1547 24.184 87.1867 22.168L85.3627 21.232C84.6667 22.528 83.3707 23.152 81.9307 23.152C79.8187 23.152 78.2827 21.736 78.0187 19.72H87.4267V18.76C87.4267 15.472 85.2187 12.904 81.6667 12.904C78.1387 12.904 75.7147 15.664 75.7147 19.048C75.7147 22.672 78.3787 25.264 81.9547 25.264ZM78.1147 18.184C78.3547 16.432 79.6507 15.04 81.6427 15.04C83.5867 15.04 84.9547 16.312 85.0507 18.184H78.1147ZM91.685 25L94.085 21.448C94.349 21.04 94.541 20.608 94.661 20.152H95.837C95.957 20.608 96.149 21.04 96.413 21.448L98.813 25H101.501L98.525 20.536C98.165 20.008 97.997 19.552 97.997 19.12C97.997 18.712 98.141 18.304 98.477 17.8L101.501 13.24H98.789L96.413 16.816C96.173 17.176 96.005 17.584 95.885 17.992H94.613C94.517 17.584 94.325 17.176 94.085 16.816L91.685 13.24H88.997L92.021 17.8C92.357 18.304 92.501 18.712 92.501 19.12C92.501 19.552 92.333 20.008 91.973 20.536L88.997 25H91.685Z" fill="white"/>
<path d="M48.3797 10.5998C48.4997 9.85579 49.0517 9.18379 49.9637 9.18379C51.5237 9.18379 52.8677 10.4078 54.8357 10.4078C56.7077 10.4078 57.9797 8.79979 58.0997 6.92779L55.6277 6.27979C55.5077 7.04779 54.9557 7.69579 54.0437 7.69579C52.6037 7.69579 51.1157 6.49579 49.1717 6.49579C47.2997 6.49579 46.0517 8.07979 45.9077 9.95179L48.3797 10.5998Z" fill="#12CE31"/>
</svg>
